<svg width="116" height="114" viewBox="0 0 116 114" fill="none" xmlns="http://www.w3.org/2000/svg">
<path d="M50.5059 102.944L48.4735 114L44.3579 113.253C43.5449 113.104 42.9352 112.855 42.4271 112.506C41.9698 112.157 41.6141 111.759 41.4617 111.261C41.2585 110.763 41.2585 110.265 41.3601 109.717C41.4617 109.269 41.6141 108.87 41.8174 108.621C42.0206 108.372 42.3255 108.123 42.6303 107.974C42.9352 107.825 43.2909 107.775 43.6465 107.725V107.625C43.2909 107.526 42.9352 107.376 42.6303 107.078C42.3255 106.779 42.0714 106.43 41.919 105.982C41.7666 105.534 41.7158 105.036 41.8174 104.488C41.919 103.94 42.173 103.442 42.4779 103.044C42.8336 102.645 43.2909 102.346 43.9006 102.197C44.5103 102.048 45.2725 102.048 46.1363 102.197L50.5059 102.944ZM47.6606 108.92L45.3741 108.522C44.9676 108.472 44.6119 108.472 44.3071 108.572C44.0022 108.671 43.6974 108.821 43.4433 109.07C43.1893 109.319 43.0876 109.568 42.986 109.966C42.8844 110.414 42.986 110.813 43.2909 111.211C43.5957 111.61 44.053 111.809 44.7136 111.958L47.0508 112.357L47.6606 108.92ZM48.5243 104.04L46.0854 103.591C45.2725 103.442 44.6628 103.492 44.2563 103.741C43.8498 103.99 43.5957 104.338 43.4941 104.787C43.4433 105.135 43.4433 105.484 43.5957 105.783C43.6974 106.082 43.9514 106.38 44.2563 106.629C44.5611 106.878 44.9168 107.028 45.3741 107.078L47.9146 107.526L48.5243 104.04Z" fill="#F58A07"/>
<path d="M36.736 99.1592C37.4981 99.458 38.1079 99.9062 38.5143 100.504C38.9208 101.052 39.1749 101.699 39.2257 102.446C39.2765 103.193 39.1241 103.94 38.7684 104.737C38.4127 105.534 37.9554 106.181 37.3965 106.629C36.8376 107.127 36.1771 107.426 35.5165 107.526C34.8052 107.625 34.0938 107.526 33.3825 107.227C32.9252 107.028 32.5187 106.779 32.163 106.48C31.8074 106.181 31.5533 105.783 31.3501 105.335C31.1468 104.886 31.0452 104.388 31.096 103.791C31.096 103.193 31.2993 102.595 31.6041 101.898L31.8582 101.35L38.1587 103.94L37.6506 105.086L32.8744 103.093C32.7219 103.492 32.6203 103.89 32.6711 104.239C32.722 104.637 32.8236 104.936 33.0268 105.235C33.2301 105.534 33.5349 105.783 33.9414 105.932C34.3987 106.131 34.8052 106.181 35.2117 106.082C35.6181 106.032 35.9738 105.833 36.2787 105.584C36.5835 105.335 36.8376 104.986 36.99 104.637L37.3965 103.741C37.5998 103.243 37.7014 102.745 37.7014 102.297C37.6506 101.848 37.5489 101.45 37.2949 101.151C37.0408 100.852 36.6852 100.554 36.2279 100.354C35.923 100.255 35.669 100.155 35.3641 100.155C35.11 100.155 34.8052 100.155 34.6019 100.255C34.3987 100.354 34.1446 100.504 33.9414 100.703L32.5695 99.8564C32.8744 99.5078 33.2301 99.209 33.6874 99.0097C34.1446 98.8105 34.6019 98.7109 35.11 98.7607C35.6181 98.8105 36.1771 98.9101 36.736 99.1592Z" fill="#F58A07"/>
<path d="M22.2548 98.362L23.6775 99.0095C23.6267 99.2087 23.5759 99.4079 23.6267 99.6071C23.6267 99.8063 23.7283 100.055 23.8299 100.254C23.9824 100.454 24.1856 100.703 24.4397 100.852C24.8461 101.101 25.2018 101.251 25.6083 101.251C25.964 101.251 26.2688 101.101 26.4721 100.852C26.6245 100.603 26.6753 100.354 26.6245 100.105C26.5737 99.8561 26.3705 99.5573 26.0148 99.2087L25.0494 98.2126C24.4905 97.615 24.1856 97.0672 24.084 96.5692C23.9824 96.0712 24.084 95.5233 24.4397 95.0253C24.7445 94.6269 25.1002 94.3281 25.6083 94.1787C26.0656 94.0293 26.5737 93.9795 27.1834 94.1289C27.7423 94.2285 28.3012 94.4775 28.911 94.8759C29.7239 95.4237 30.232 96.0214 30.4861 96.6688C30.7401 97.3162 30.7401 98.0134 30.3845 98.7106L28.911 98.0134C29.0634 97.615 29.0634 97.2664 28.9618 96.9178C28.8093 96.5692 28.5553 96.2704 28.1488 95.9716C27.6915 95.6727 27.285 95.5233 26.8786 95.5233C26.4721 95.5233 26.1672 95.6728 26.0148 95.9218C25.8623 96.121 25.8115 96.37 25.8623 96.619C25.9132 96.868 26.1164 97.1668 26.3705 97.4656L27.3867 98.5114C27.9456 99.1091 28.2504 99.6569 28.3521 100.205C28.4537 100.753 28.3012 101.251 27.9456 101.749C27.6407 102.147 27.285 102.446 26.8277 102.595C26.3705 102.745 25.8623 102.745 25.3542 102.645C24.8461 102.545 24.2872 102.296 23.7791 101.948C23.017 101.45 22.5089 100.852 22.3056 100.254C22.0008 99.6569 22.0008 99.0095 22.2548 98.362Z" fill="#F58A07"/>
<path d="M16.1577 98.5111L14.9382 97.3657L20.5782 91.6385C20.7814 91.3895 20.9338 91.1903 20.9847 91.0409C21.0355 90.8417 21.0355 90.6923 20.9338 90.5429C20.883 90.3934 20.7814 90.244 20.629 90.1444C20.5274 90.0448 20.4257 89.995 20.3749 89.9452C20.3241 89.8954 20.2225 89.8456 20.1717 89.7958L20.9338 88.6006C21.0355 88.6504 21.1371 88.7002 21.2895 88.7998C21.442 88.8994 21.6452 89.0488 21.7976 89.1982C22.1025 89.497 22.3565 89.8456 22.509 90.1942C22.6614 90.5429 22.7122 90.9413 22.6614 91.3397C22.6106 91.7381 22.3565 92.1365 22.0009 92.4851L16.1577 98.5111ZM15.0907 94.7262L16.0052 93.78L19.3587 96.9673L18.4441 97.9135L15.0907 94.7262Z" fill="#F58A07"/>
<path d="M15.3448 80.8316C15.5989 81.2798 15.7513 81.7778 15.8021 82.226C15.8529 82.724 15.7513 83.1224 15.5481 83.5208C15.3448 83.9193 14.9891 84.2679 14.481 84.5667C14.0746 84.8157 13.6681 84.9153 13.3124 84.9153C12.9567 84.9153 12.6011 84.8157 12.2962 84.6165C11.9913 84.4173 11.6865 84.2181 11.4324 83.9193C11.1784 83.6204 10.8735 83.3216 10.6703 83.0228C10.3654 82.6244 10.1114 82.2758 9.90811 82.0268C9.70487 81.7778 9.55244 81.6284 9.40001 81.5288C9.24758 81.4292 9.09514 81.479 8.8919 81.5786H8.84109C8.43461 81.8276 8.18056 82.1264 8.07894 82.475C7.97732 82.8236 8.07894 83.2718 8.33299 83.7201C8.63785 84.2181 8.94271 84.5169 9.29839 84.6663C9.65406 84.8157 10.0097 84.8655 10.3654 84.8157L10.8227 86.3097C10.2638 86.4093 9.75568 86.3595 9.29839 86.2101C8.84109 86.0607 8.43461 85.8117 8.07894 85.5129C7.72326 85.1643 7.4184 84.8157 7.16435 84.3675C7.01192 84.0687 6.85949 83.7699 6.70706 83.3714C6.60544 83.0228 6.55463 82.6244 6.55463 82.226C6.55463 81.8276 6.70706 81.4292 6.9103 81.0806C7.11354 80.732 7.52002 80.3833 8.07894 80.0347L13.0075 77.2458L13.8205 78.6403L12.8043 79.2379L12.8551 79.2877C13.1092 79.2877 13.3632 79.2877 13.6681 79.3873C13.9729 79.4869 14.227 79.6363 14.5319 79.8355C14.8367 80.1343 15.0908 80.4331 15.3448 80.8316ZM13.9729 81.1802C13.7189 80.7818 13.4648 80.4829 13.16 80.2837C12.8551 80.0845 12.4994 79.9849 12.1438 79.9849C11.7881 79.9849 11.4832 80.0845 11.1784 80.2339L10.213 80.7818C10.3146 80.7818 10.4162 80.8814 10.5178 80.981C10.6195 81.0806 10.7719 81.23 10.9243 81.4292C11.0767 81.5786 11.1784 81.7778 11.3308 81.9272C11.4324 82.0766 11.5849 82.226 11.6357 82.3256C11.8389 82.5746 12.0421 82.8236 12.2454 82.973C12.4486 83.1722 12.7027 83.2718 12.9059 83.3216C13.16 83.3714 13.414 83.3216 13.6681 83.1722C14.0237 82.973 14.227 82.6742 14.227 82.3256C14.3286 81.977 14.227 81.5786 13.9729 81.1802Z" fill="#F58A07"/>
<path d="M14.0748 70.5228C14.2781 71.1702 14.3797 71.718 14.3289 72.2658C14.3289 72.7638 14.2272 73.2121 14.024 73.6105C13.8208 74.0089 13.6175 74.3077 13.3127 74.5567L12.2964 73.4113C12.3981 73.2618 12.5505 73.1124 12.6521 72.8634C12.7537 72.6642 12.8554 72.3654 12.9062 72.0666C12.957 71.7678 12.9062 71.3694 12.7537 70.971C12.5505 70.3734 12.2456 69.9251 11.8392 69.6263C11.4327 69.3275 10.8738 69.2777 10.264 69.4769L8.6381 69.9749L8.68891 70.0745C8.89215 70.1244 9.14621 70.1742 9.40026 70.2738C9.65431 70.3734 9.90836 70.5726 10.2132 70.8216C10.5181 71.0706 10.6705 71.469 10.8229 71.967C11.0262 72.6144 11.077 73.212 10.9246 73.8097C10.7721 74.4073 10.4673 74.9551 9.95917 75.4531C9.45107 75.9511 8.79053 76.2997 7.92676 76.5986C7.06298 76.8476 6.25002 76.9472 5.53867 76.8476C4.82733 76.748 4.2176 76.499 3.7095 76.1005C3.2014 75.7021 2.84572 75.1543 2.64248 74.5069C2.49005 74.0089 2.43924 73.5607 2.49005 73.212C2.54086 72.8634 2.69329 72.5646 2.84572 72.3156C2.99816 72.0666 3.15059 71.8674 3.30302 71.718L3.25221 71.6184L1.93114 72.0168L1.42303 70.473L9.80674 67.8833C10.5181 67.6841 11.1278 67.6343 11.6867 67.8335C12.2456 68.0327 12.7029 68.3315 13.1094 68.8295C13.5159 69.3275 13.8716 69.8255 14.0748 70.5228ZM9.40026 71.967C9.24783 71.5188 9.04459 71.1702 8.68891 70.9212C8.33324 70.6722 7.97757 70.5228 7.52028 70.5228C7.06298 70.473 6.55488 70.5726 5.99597 70.722C5.43705 70.8714 4.97976 71.1204 4.62409 71.4192C4.26841 71.718 4.01436 72.0666 3.86193 72.4152C3.7095 72.8136 3.7095 73.212 3.86193 73.6603C4.01436 74.1085 4.26841 74.5069 4.62409 74.7061C4.97976 74.9551 5.38624 75.0547 5.84353 75.1045C6.30083 75.1543 6.80893 75.0547 7.31703 74.9053C7.87595 74.7559 8.28243 74.5069 8.6381 74.2081C8.99377 73.9093 9.24783 73.5607 9.34945 73.212C9.55269 72.8634 9.55269 72.465 9.40026 71.967Z" fill="#F58A07"/>
<path d="M8.99313 61.6084C9.09476 62.455 8.94232 63.1523 8.63746 63.7997C8.3326 64.4471 7.87531 64.9451 7.21477 65.2937C6.60505 65.6922 5.84289 65.8914 4.92831 65.991C4.06453 66.0906 3.25157 65.991 2.59103 65.6921C1.87969 65.4431 1.32077 65.0447 0.91429 64.4969C0.507808 63.9491 0.253756 63.3017 0.152135 62.5049C0.101325 62.0068 0.152135 61.5586 0.253756 61.1104C0.355377 60.6622 0.609428 60.214 0.91429 59.8654C1.21915 59.467 1.62564 59.1681 2.18455 58.9191C2.69265 58.6701 3.35319 58.5207 4.11534 58.4211L4.72507 58.3713L5.33479 65.0447L4.06453 65.1443L3.60724 60.0646C3.14995 60.1144 2.79427 60.214 2.48941 60.4132C2.18455 60.6124 1.9305 60.9112 1.77807 61.21C1.62564 61.5088 1.52401 61.9072 1.57482 62.3554C1.62564 62.8037 1.77807 63.2021 2.03212 63.5009C2.28617 63.7997 2.59103 64.0487 2.99751 64.1981C3.404 64.3475 3.81048 64.3973 4.21696 64.3475L5.18236 64.2479C5.74127 64.1981 6.24938 64.0487 6.60505 63.7997C6.96072 63.5507 7.26558 63.2519 7.46882 62.9033C7.62125 62.5049 7.72288 62.1064 7.67207 61.6084C7.62125 61.3096 7.57044 61.0108 7.46882 60.7618C7.3672 60.5128 7.21477 60.3136 7.01153 60.1144C6.80829 59.965 6.55424 59.8156 6.30019 59.7658L6.45262 58.1721C6.90991 58.2717 7.3672 58.4211 7.72288 58.7199C8.07855 59.0187 8.38341 59.3674 8.63746 59.8654C8.89151 60.3634 8.94232 61.0108 8.99313 61.6084Z" fill="#F58A07"/>
<path d="M3.65834 53.4901L8.73938 54.0878L8.53614 55.7312L0 54.7352L0.203241 53.1913L1.57512 53.3407V53.2411C1.16864 52.9921 0.812965 52.6435 0.609724 52.1953C0.406483 51.7471 0.304862 51.1993 0.406483 50.6017C0.457293 50.0538 0.660534 49.5558 0.965396 49.1574C1.27026 48.759 1.67674 48.4602 2.18484 48.3108C2.69295 48.1116 3.30267 48.0618 4.01402 48.1614L9.45072 48.8088L9.24748 50.4523L3.96321 49.755C3.35348 49.7052 2.84538 49.8048 2.4389 50.0538C2.03241 50.3526 1.82917 50.7511 1.77836 51.2989C1.72755 51.6973 1.77836 51.9961 1.93079 52.3447C2.08322 52.6435 2.28647 52.8925 2.59133 53.1415C2.84538 53.2909 3.20105 53.4403 3.65834 53.4901Z" fill="#F58A07"/>
<path d="M11.3311 42.7831C11.0771 43.5301 10.6706 44.1775 10.1117 44.5759C9.55275 45.0242 8.89221 45.2732 8.18087 45.3728C7.46952 45.4724 6.65656 45.3728 5.84359 45.074C5.03063 44.7752 4.31928 44.3767 3.81118 43.8787C3.30307 43.3807 2.9474 42.7831 2.79497 42.0859C2.64254 41.3886 2.69335 40.6914 2.9474 39.9444C3.15064 39.3468 3.45551 38.8488 3.86199 38.4503C4.26847 38.0519 4.72576 37.7531 5.23387 37.6037C5.74197 37.4543 6.30088 37.4543 6.8598 37.5539L6.35169 39.048C5.94521 38.9982 5.53873 39.0978 5.18306 39.297C4.82738 39.4962 4.52252 39.8448 4.37009 40.3428C4.21766 40.791 4.21766 41.1894 4.31928 41.5878C4.4209 41.9863 4.67495 42.3349 5.03063 42.6835C5.3863 43.0321 5.84359 43.2811 6.45332 43.4803C7.06304 43.6795 7.57114 43.7791 8.07925 43.7293C8.58735 43.6795 8.99383 43.5799 9.3495 43.3309C9.70518 43.0819 9.95923 42.7333 10.1117 42.2851C10.2133 41.9863 10.2641 41.6875 10.2133 41.4384C10.1625 41.1396 10.1117 40.8906 9.95923 40.6914C9.8068 40.4922 9.60356 40.2432 9.3495 40.0938L9.85761 38.5997C10.3657 38.8488 10.7722 39.1476 11.0771 39.5958C11.3819 39.9942 11.5852 40.4922 11.636 41.04C11.636 41.5878 11.5852 42.1855 11.3311 42.7831Z" fill="#F58A07"/>
<path d="M16.666 38.1519C16.5135 38.3511 16.4119 38.5503 16.2595 38.6997C16.107 38.8491 16.0054 38.9487 15.9038 39.0483L14.9384 38.0025C15.1416 37.8033 15.3449 37.5543 15.4465 37.3551C15.5481 37.1559 15.5989 36.9069 15.5481 36.7077C15.4973 36.4587 15.3449 36.2096 15.0908 35.861L14.6843 35.4128L5.58929 33.7196L6.50388 32.2255L13.3633 33.7196L13.4141 33.62L8.79035 28.4406L9.70493 26.9465L16.2595 34.7654C16.5643 35.114 16.7676 35.5124 16.92 35.861C17.0724 36.2096 17.1232 36.6081 17.0724 36.9567C17.0216 37.3053 16.8692 37.7535 16.666 38.1519Z" fill="#F58A07"/>
<path d="M21.5944 25.9504L20.7815 25.0042L21.0355 19.526C21.0355 18.9284 21.0863 18.4303 21.0355 18.0319C21.0355 17.6335 20.9847 17.2351 20.8831 16.9363C20.7815 16.6375 20.629 16.3387 20.4258 16.0897C20.1717 15.7908 19.8669 15.6414 19.562 15.5418C19.2572 15.4422 18.9015 15.4422 18.5966 15.5418C18.2918 15.6414 17.9361 15.7908 17.682 16.0399C17.3772 16.2889 17.1739 16.5877 17.0215 16.9363C16.9199 17.2351 16.8691 17.5837 16.9707 17.9323C17.0723 18.2809 17.2247 18.5797 17.4788 18.8786L16.2593 19.9742C15.802 19.4762 15.4972 18.9284 15.3956 18.3307C15.2939 17.7331 15.3448 17.1355 15.5988 16.5877C15.8529 15.9901 16.2085 15.492 16.7674 15.0438C17.3264 14.5956 17.8853 14.2968 18.495 14.1474C19.1047 13.998 19.6636 13.998 20.2225 14.1972C20.7815 14.3466 21.2388 14.6454 21.6452 15.1434C21.9501 15.4422 22.1533 15.7908 22.3058 16.2391C22.4582 16.6375 22.5598 17.1355 22.5598 17.7829C22.5598 18.4303 22.5598 19.1774 22.509 20.1734L22.3566 23.2611L22.4074 23.3109L26.269 19.9742L27.2344 21.0698L21.5944 25.9504Z" fill="#F58A07"/>
<path d="M33.0271 17.9324C32.265 18.3309 31.452 18.4803 30.6899 18.3807C29.9277 18.2811 29.1655 17.9324 28.4542 17.285C27.7428 16.6874 27.0823 15.8408 26.5234 14.7451C25.9137 13.6495 25.558 12.7033 25.4564 11.757C25.3548 10.8606 25.4564 10.0638 25.7612 9.36655C26.1169 8.66932 26.625 8.1215 27.438 7.72309C28.2001 7.32468 28.9623 7.17527 29.7753 7.27488C30.5882 7.37448 31.2996 7.72309 32.0109 8.32071C32.7223 8.91833 33.3828 9.76496 33.9417 10.8108C34.5514 11.9064 34.9071 12.9025 35.0087 13.7989C35.1612 14.6953 35.0595 15.542 34.7039 16.1894C34.3482 16.9364 33.7893 17.4842 33.0271 17.9324ZM32.3158 16.6376C32.9763 16.289 33.332 15.6914 33.3828 14.7949C33.4336 13.9483 33.0779 12.9025 32.4174 11.6574C31.9601 10.8606 31.5028 10.2132 30.9947 9.71516C30.4866 9.21714 30.0293 8.91833 29.5212 8.81873C29.0131 8.71913 28.5558 8.76893 28.0985 9.01794C27.438 9.36655 27.0823 9.96417 27.0315 10.8606C26.9807 11.7072 27.3364 12.7531 27.9969 13.9981C28.4542 14.8447 28.9115 15.4922 29.4196 15.9404C29.9277 16.4384 30.385 16.6874 30.8931 16.8368C31.3504 16.9364 31.8585 16.8866 32.3158 16.6376Z" fill="#F58A07"/>
<path d="M38.9208 14.9443L38.5651 13.7491L41.2072 8.91833C41.5121 8.42032 41.7153 7.9223 41.8678 7.57369C42.0202 7.17528 42.1726 6.82666 42.2234 6.52785C42.2743 6.22904 42.2743 5.88043 42.1726 5.58162C42.071 5.23301 41.9186 4.9342 41.6645 4.73499C41.4105 4.53579 41.1056 4.38638 40.8008 4.33658C40.4451 4.28678 40.0894 4.28678 39.7337 4.38638C39.3273 4.48599 39.0224 4.68519 38.7683 4.8844C38.5143 5.13341 38.3619 5.43222 38.2602 5.73103C38.1586 6.02984 38.2094 6.42825 38.311 6.82666L36.7359 7.27488C36.5327 6.62746 36.5327 5.98004 36.7359 5.43222C36.8884 4.8346 37.244 4.33658 37.7013 3.93817C38.1586 3.53975 38.7175 3.24094 39.4289 3.04174C40.1402 2.84253 40.7499 2.84253 41.3597 2.94213C41.9694 3.04174 42.4775 3.34055 42.9348 3.68916C43.3413 4.08757 43.6461 4.53579 43.8494 5.13341C43.951 5.53182 44.0018 5.93023 43.951 6.37845C43.9002 6.82666 43.7478 7.32468 43.4937 7.8725C43.2397 8.42032 42.884 9.16734 42.4267 10.014L40.8516 12.8527V12.9523L45.831 11.6076L46.2375 13.0021L38.9208 14.9443Z" fill="#F58A07"/>
<path d="M52.7414 12.5536C51.8776 12.6034 51.1155 12.4042 50.455 11.956C49.7944 11.5078 49.2863 10.9102 48.9306 10.0636C48.575 9.21693 48.3717 8.1711 48.2701 6.97586C48.2193 5.78062 48.3209 4.73478 48.6258 3.83835C48.9306 2.94192 49.3879 2.2945 49.9977 1.79648C50.6074 1.29847 51.3695 1.04946 52.2333 0.999658C53.0971 0.949856 53.8592 1.14906 54.5198 1.59728C55.1803 2.04549 55.6884 2.64311 56.0441 3.48974C56.3998 4.33637 56.6538 5.38221 56.7046 6.57745C56.7554 7.82249 56.6538 8.86832 56.349 9.71495C56.0441 10.5616 55.5868 11.2588 55.0279 11.7568C54.3673 12.2548 53.656 12.5038 52.7414 12.5536ZM52.6906 11.1094C53.4528 11.0596 54.0625 10.6612 54.469 9.91416C54.8754 9.16713 55.0279 8.0715 54.9771 6.67705C54.9263 5.73082 54.7738 4.98379 54.5706 4.33637C54.3673 3.68895 54.0117 3.24073 53.656 2.89212C53.2495 2.59331 52.843 2.44391 52.3349 2.44391C51.5728 2.49371 50.9631 2.89212 50.5566 3.63915C50.1501 4.38617 49.9977 5.48181 50.0485 6.87626C50.0993 7.82249 50.2517 8.61931 50.455 9.21693C50.6582 9.81455 51.0139 10.3126 51.3695 10.6612C51.7252 11.0098 52.1825 11.1094 52.6906 11.1094Z" fill="#F58A07"/>
<path d="M70.9316 8.3704L70.5759 9.76485L65.6473 8.47001L66.003 7.07556L70.9316 8.3704Z" fill="#F58A07"/>
<path d="M76.4191 17.3841L77.0797 16.3383L82.5164 15.0435C83.0753 14.8941 83.5834 14.7447 83.9899 14.645C84.3964 14.5454 84.752 14.3462 85.0061 14.1968C85.2601 14.0474 85.5142 13.7984 85.6666 13.4996C85.8699 13.2008 85.9715 12.8522 85.9715 12.5534C85.9715 12.2048 85.8699 11.906 85.7174 11.6569C85.5142 11.3581 85.2601 11.1091 84.9553 10.9099C84.5996 10.7107 84.2439 10.5613 83.8883 10.5613C83.5326 10.5613 83.2277 10.6111 82.9229 10.7605C82.618 10.9099 82.3639 11.1589 82.1607 11.5075L80.7888 10.6609C81.1445 10.0633 81.6018 9.66488 82.1607 9.41587C82.7196 9.16687 83.2785 9.06726 83.9391 9.11706C84.5488 9.16687 85.1585 9.36607 85.7682 9.76449C86.378 10.1629 86.8353 10.6111 87.1401 11.1091C87.445 11.6569 87.5974 12.2048 87.5974 12.7526C87.5974 13.3004 87.445 13.8482 87.0893 14.3462C86.8861 14.6949 86.5812 14.9937 86.2255 15.2427C85.8699 15.4917 85.4126 15.7407 84.8028 15.9399C84.1931 16.1391 83.431 16.3383 82.4656 16.5873L79.2645 17.3841L79.2137 17.4339L83.5834 20.1232L82.7704 21.3683L76.4191 17.3841Z" fill="#F58A07"/>
<path d="M87.4954 25.801C86.8856 25.2034 86.53 24.5062 86.3775 23.7591C86.2759 23.0121 86.3775 22.2153 86.784 21.3686C87.1905 20.522 87.8002 19.6754 88.7148 18.8288C89.5786 17.9821 90.4424 17.3347 91.3061 16.9861C92.1699 16.5877 92.9829 16.4881 93.745 16.5877C94.5072 16.6873 95.2185 17.0857 95.8283 17.6833C96.438 18.2809 96.7937 18.9782 96.9461 19.7252C97.0477 20.4722 96.9461 21.269 96.5396 22.1157C96.1331 22.9623 95.5234 23.8089 94.6596 24.6556C93.7958 25.5022 92.8813 26.1496 92.0683 26.4982C91.2045 26.8966 90.3915 26.9962 89.6294 26.8966C88.8164 26.797 88.1051 26.3986 87.4954 25.801ZM88.5624 24.7552C89.1213 25.303 89.7818 25.4524 90.6456 25.2532C91.5094 25.054 92.424 24.4065 93.4402 23.4603C94.1007 22.8129 94.6088 22.1655 94.9645 21.5679C95.2693 20.9702 95.4218 20.4224 95.4218 19.9244C95.4218 19.4264 95.2185 19.028 94.8629 18.6296C94.3039 18.0817 93.6434 17.9323 92.7796 18.1315C91.9159 18.3307 91.0013 18.9782 89.9851 19.9244C89.3245 20.5718 88.8164 21.2192 88.4608 21.8169C88.1559 22.4145 88.0035 22.9623 88.0035 23.4603C88.0035 24.0081 88.2067 24.4065 88.5624 24.7552Z" fill="#F58A07"/>
<path d="M92.0685 30.5316L93.1355 29.8841L98.5722 31.0296C99.1819 31.1292 99.69 31.2288 100.096 31.2786C100.503 31.3284 100.909 31.3284 101.214 31.2786C101.519 31.2288 101.824 31.1292 102.129 30.93C102.434 30.7308 102.688 30.4818 102.84 30.183C102.993 29.8841 103.043 29.5853 102.993 29.2367C102.942 28.8881 102.84 28.5893 102.637 28.2407C102.434 27.8921 102.18 27.6431 101.875 27.4937C101.57 27.3443 101.265 27.2447 100.909 27.2945C100.554 27.2945 100.198 27.4439 99.8933 27.6431L99.0295 26.2486C99.6392 25.9 100.198 25.7008 100.859 25.7008C101.519 25.7008 102.027 25.8502 102.586 26.149C103.145 26.4478 103.602 26.896 103.958 27.4937C104.365 28.0913 104.568 28.6889 104.619 29.2865C104.669 29.8841 104.568 30.432 104.314 30.9798C104.06 31.5276 103.653 31.926 103.145 32.2248C102.789 32.424 102.383 32.5734 101.976 32.673C101.57 32.7726 101.011 32.7726 100.401 32.673C99.7916 32.6232 98.9787 32.4738 98.0133 32.2746L94.7614 31.6272L94.7106 31.677L97.4544 35.9599L96.1841 36.707L92.0685 30.5316Z" fill="#F58A07"/>
<path d="M109.446 39.1972L98.7247 43.1813L98.1149 41.5876L107.21 38.2011V38.1513L104.568 36.2589L106.092 35.6613L108.836 37.6533L109.446 39.1972Z" fill="#F58A07"/>
<path d="M116 52.2455L97.2511 54.138L97.0986 52.6937L115.848 50.8013L116 52.2455Z" fill="#F58A07"/>
<path d="M112.037 65.2936L100.655 63.949L100.858 62.3055L112.24 63.6502L112.037 65.2936Z" fill="#F58A07"/>
<path d="M99.1311 70.1242C99.3343 69.3771 99.7408 68.7297 100.249 68.2815C100.757 67.8333 101.418 67.5345 102.129 67.3851C102.84 67.2357 103.653 67.2855 104.517 67.5345C105.381 67.7835 106.092 68.1321 106.651 68.6301C107.21 69.1281 107.566 69.7257 107.769 70.3732C107.972 71.0206 107.921 71.7676 107.718 72.5146C107.515 73.2617 107.108 73.9091 106.6 74.3573C106.092 74.8055 105.432 75.1043 104.72 75.2537C104.009 75.4031 103.196 75.3533 102.332 75.1043C101.468 74.8553 100.757 74.5067 100.249 74.0087C99.69 73.5107 99.3343 72.9131 99.1311 72.2656C98.9278 71.6182 98.9278 70.8712 99.1311 70.1242ZM100.503 70.5226C100.351 71.0206 100.351 71.4688 100.554 71.8672C100.757 72.2656 101.011 72.6142 101.418 72.8633C101.824 73.1621 102.281 73.3613 102.789 73.5107C103.297 73.6601 103.806 73.7099 104.314 73.7099C104.822 73.6601 105.228 73.5605 105.584 73.3115C105.94 73.0625 106.194 72.7138 106.346 72.2158C106.499 71.7178 106.499 71.2696 106.295 70.8712C106.143 70.4728 105.838 70.1242 105.432 69.8253C105.025 69.5265 104.568 69.3273 104.06 69.1779C103.552 69.0285 103.043 68.9787 102.535 68.9787C102.027 69.0285 101.621 69.1281 101.265 69.4269C100.909 69.6759 100.655 70.0246 100.503 70.5226Z" fill="#F58A07"/>
<path d="M100.96 79.8855L96.4889 77.495L97.3019 76.0508L104.873 80.0349L104.11 81.4294L102.891 80.7819L102.84 80.8816C103.145 81.28 103.297 81.6784 103.348 82.1764C103.399 82.6744 103.247 83.1724 102.942 83.7701C102.688 84.2681 102.332 84.6665 101.875 84.9155C101.468 85.1645 100.96 85.3139 100.452 85.3139C99.8932 85.3139 99.3343 85.1147 98.7246 84.8159L93.8976 82.276L94.7105 80.8318L99.3343 83.272C99.8932 83.5708 100.401 83.6705 100.859 83.521C101.316 83.4214 101.672 83.1226 101.976 82.6246C102.18 82.276 102.23 81.9772 102.23 81.6286C102.23 81.28 102.129 80.9812 101.926 80.6823C101.672 80.3835 101.367 80.1345 100.96 79.8855Z" fill="#F58A07"/>
<path d="M90.0867 86.7578C90.544 86.2598 91.1029 85.9112 91.7127 85.712C92.3224 85.5626 92.9829 85.5626 93.6943 85.7618C94.4056 85.961 95.1169 86.3594 95.7775 86.957C96.438 87.5546 96.9969 88.202 97.251 88.8495C97.5558 89.4969 97.6575 90.1443 97.5558 90.7917C97.4542 91.4392 97.2002 91.987 96.7429 92.485C96.3872 92.8834 96.0315 93.1324 95.6759 93.2818C95.3202 93.4312 95.0153 93.481 94.7105 93.4312C94.4056 93.4312 94.1515 93.3814 93.9483 93.3316L93.8975 93.3814L97.0986 96.1205L95.9807 97.3655L87.343 89.9949L88.41 88.7997L89.4262 89.6463L89.5278 89.5467C89.477 89.3475 89.3754 89.0985 89.3246 88.7997C89.2738 88.5009 89.2738 88.202 89.3754 87.8534C89.477 87.5048 89.731 87.1562 90.0867 86.7578ZM90.8997 87.953C90.5948 88.3017 90.3916 88.7001 90.3916 89.0985C90.3916 89.4969 90.4932 89.9451 90.6964 90.3435C90.9505 90.7419 91.2554 91.1901 91.7127 91.5388C92.1699 91.9372 92.6272 92.1862 93.0845 92.3356C93.5418 92.485 93.9483 92.5348 94.3548 92.4352C94.7613 92.3356 95.1169 92.1364 95.4218 91.7878C95.7267 91.4392 95.9299 91.0407 95.9299 90.5925C95.9299 90.1941 95.8283 89.7459 95.625 89.3475C95.371 88.9491 95.0661 88.5507 94.6597 88.202C94.2024 87.8534 93.7959 87.5546 93.3386 87.4052C92.8813 87.2558 92.424 87.206 92.0175 87.2558C91.611 87.3554 91.2554 87.6044 90.8997 87.953Z" fill="#F58A07"/>
<path d="M82.313 93.9298C82.9735 93.4816 83.6341 93.1828 84.3454 93.133C85.0568 93.0832 85.7173 93.1828 86.3778 93.5314C87.0384 93.88 87.6481 94.378 88.1562 95.0753C88.6643 95.7725 89.02 96.4697 89.1724 97.2167C89.3248 97.9139 89.2232 98.6112 88.9692 99.2586C88.7151 99.906 88.2578 100.454 87.5973 100.952C86.9368 101.4 86.2762 101.699 85.5649 101.749C84.8535 101.798 84.193 101.649 83.5325 101.35C82.8719 101.002 82.2622 100.504 81.7541 99.8064C81.246 99.1092 80.8903 98.412 80.7887 97.6649C80.6871 96.9179 80.7379 96.2705 80.9919 95.6231C81.1952 94.9259 81.6525 94.378 82.313 93.9298ZM83.126 95.0255C82.7195 95.3243 82.4654 95.6729 82.313 96.1211C82.1606 96.5693 82.2114 96.9677 82.3638 97.4159C82.5163 97.8642 82.7195 98.3124 83.0752 98.7606C83.38 99.2088 83.7865 99.5574 84.193 99.8064C84.5995 100.055 85.006 100.205 85.4633 100.255C85.9205 100.304 86.327 100.155 86.7335 99.8064C87.14 99.5076 87.4449 99.159 87.5465 98.7108C87.6481 98.2626 87.6481 97.8641 87.4957 97.3661C87.3432 96.9179 87.14 96.4697 86.7843 96.0215C86.4795 95.5733 86.073 95.2247 85.6665 94.9757C85.26 94.7266 84.8535 94.5772 84.3962 94.5772C83.9898 94.5772 83.5833 94.7266 83.126 95.0255Z" fill="#F58A07"/>
<path d="M77.6888 102.745L75.6056 98.163L77.1299 97.4658L80.6866 105.135L79.2131 105.783L78.6542 104.538L78.5526 104.587C78.5526 105.085 78.451 105.534 78.1461 105.932C77.892 106.331 77.4347 106.679 76.8758 106.928C76.3169 107.177 75.8088 107.277 75.3007 107.227C74.7926 107.177 74.3353 106.978 73.9288 106.679C73.5223 106.38 73.1667 105.882 72.8618 105.235L70.6262 100.354L72.1505 99.6571L74.3353 104.338C74.5894 104.886 74.945 105.285 75.4023 105.434C75.8596 105.633 76.3169 105.583 76.825 105.384C77.1807 105.235 77.4347 105.036 77.638 104.737C77.8412 104.488 77.9428 104.139 77.9937 103.791C77.9937 103.542 77.892 103.193 77.6888 102.745Z" fill="#F58A07"/>
</svg>
