<svg width="20" height="14" viewBox="0 0 20 14" fill="none" xmlns="http://www.w3.org/2000/svg">
<path fill-rule="evenodd" clip-rule="evenodd" d="M18.6397 1.29942C18.9426 1.59206 19.1578 1.95443 19.2634 2.34992C19.5455 3.8155 19.6824 5.30238 19.6725 6.79158C19.6781 8.25853 19.5412 9.72291 19.2634 11.1666C19.1578 11.5621 18.9426 11.9244 18.6397 12.2171C18.3368 12.5097 17.9568 12.7223 17.5382 12.8333C16.0086 13.2166 9.89023 13.2166 9.89023 13.2166C9.89023 13.2166 3.77188 13.2166 2.2423 12.8333C1.83217 12.7281 1.45792 12.5256 1.15571 12.2453C0.853493 11.965 0.633528 11.6165 0.517067 11.2333C0.234954 9.76767 0.0980128 8.28079 0.107991 6.79158C0.100197 5.31351 0.23713 3.83788 0.517067 2.38325C0.622705 1.98776 0.837849 1.6254 1.14077 1.33276C1.44369 1.04012 1.82366 0.827573 2.2423 0.716585C3.77188 0.333252 9.89023 0.333252 9.89023 0.333252C9.89023 0.333252 16.0086 0.333252 17.5382 0.683252C17.9568 0.794239 18.3368 1.00679 18.6397 1.29942ZM13.0031 6.79161L7.88969 9.51661V4.06661L13.0031 6.79161Z" fill="white"/>
</svg>
