<svg width="21" height="16" viewBox="0 0 21 16" fill="none" xmlns="http://www.w3.org/2000/svg">
<path d="M20.1109 0.500079C19.2593 1.06298 18.3164 1.4935 17.3185 1.77508C16.7829 1.198 16.0711 0.788989 15.2794 0.603351C14.4876 0.417713 13.6541 0.464409 12.8916 0.737123C12.1291 1.00984 11.4744 1.49541 11.016 2.12818C10.5576 2.76094 10.3177 3.51036 10.3286 4.27508V5.10841C8.76581 5.14639 7.21723 4.82159 5.8208 4.16295C4.42437 3.50431 3.22344 2.53228 2.32498 1.33341C2.32498 1.33341 -1.2322 8.83341 6.77145 12.1667C4.93997 13.3317 2.7582 13.9159 0.546387 13.8334C8.55004 18.0001 18.3323 13.8334 18.3323 4.25008C18.3315 4.01796 18.3076 3.78641 18.2611 3.55841C19.1687 2.71966 19.8092 1.66067 20.1109 0.500079Z" fill="white"/>
</svg>
